<svg width="35" height="35" viewBox="0 0 35 35" fill="none" xmlns="http://www.w3.org/2000/svg">
<path d="M14.4411 23.7405C15.0326 23.7405 15.3091 24.0485 15.2916 24.4405C15.2741 24.8325 15.1621 25.1405 14.2416 25.1405C13.5416 25.1405 4.79159 25.0915 3.51409 25.1195C2.91559 25.1195 2.53059 24.941 2.51659 24.5455C2.49022 24.3648 2.53547 24.181 2.6427 24.0332C2.74993 23.8855 2.91066 23.7854 3.09059 23.7545C3.81159 23.7125 13.0621 23.7335 14.4411 23.7405Z" fill="white"/>
<path d="M18.8266 25.4695C18.8266 26.285 18.8021 26.992 18.8021 27.727H25.8336C26.4741 27.727 27.0796 27.8425 27.0901 28.777C27.4394 28.5956 27.8441 28.5519 28.2241 28.6545C28.4503 28.6835 28.6635 28.7767 28.8384 28.9231C29.0134 29.0695 29.1427 29.2629 29.2111 29.4805C29.327 29.7431 29.3712 30.0318 29.3392 30.3171C29.3072 30.6023 29.2002 30.8741 29.0291 31.1045C28.6406 31.661 28.2661 31.7625 27.5311 31.7555C26.5336 31.7555 25.9211 31.304 25.8546 30.2925C25.8473 30.0704 25.8957 29.85 25.9954 29.6513C26.095 29.4527 26.2427 29.2821 26.4251 29.155C26.1171 29.155 19.6106 29.1305 18.7251 29.1305C18.8727 29.4563 18.9242 29.8176 18.8733 30.1717C18.8225 30.5257 18.6715 30.8579 18.4381 31.129C18.233 31.3509 17.9758 31.518 17.6897 31.6152C17.4037 31.7124 17.0978 31.7366 16.8001 31.6855C16.5666 31.6588 16.3422 31.5796 16.1438 31.4538C15.9453 31.3281 15.7778 31.159 15.6539 30.9594C15.53 30.7597 15.4529 30.5346 15.4283 30.301C15.4038 30.0673 15.4324 29.8311 15.5121 29.61C15.5513 29.3633 15.6515 29.1303 15.8037 28.9323C15.9559 28.7342 16.1553 28.5774 16.3836 28.476C16.6848 28.39 17.0003 28.3662 17.3111 28.406C17.3496 27.496 17.3881 26.383 17.3951 25.4975C16.6776 25.3575 16.2436 23.8315 15.9356 22.9215C15.2916 21.0105 11.8651 11.7215 11.7356 11.3715C11.0811 11.3715 8.88306 11.41 8.42106 11.3995C7.37106 11.3715 6.90906 11.5395 6.91256 10.6365C6.91256 10.045 7.68606 10.0485 7.89956 10.045C9.18056 10.024 11.8056 10.045 12.2746 10.0905C12.8066 10.1255 13.0516 10.549 13.2686 11.053C13.6816 12.0155 14.0316 12.6525 14.3851 13.545H31.8431C32.0065 13.5697 32.1634 13.6266 32.3047 13.7122C32.4461 13.7978 32.5691 13.9106 32.6667 14.044C32.7643 14.1774 32.8346 14.3287 32.8734 14.4894C32.9122 14.65 32.9189 14.8168 32.8931 14.98C32.6026 16.072 30.5271 21.7525 29.5751 24.7275C29.2881 25.627 28.2731 25.4485 27.5381 25.459C26.9151 25.4905 19.0716 25.4695 18.8266 25.4695ZM18.0041 24.0695H28.1541C29.0221 21.7245 30.9331 15.9355 31.1956 15.001H14.8961C15.8936 17.85 16.9891 21.2415 18.0041 24.08V24.0695ZM17.0836 30.3695C17.1841 30.3737 17.2827 30.3415 17.3613 30.2786C17.4399 30.2157 17.493 30.1266 17.5109 30.0276C17.5289 29.9286 17.5103 29.8264 17.4588 29.74C17.4073 29.6536 17.3262 29.5888 17.2306 29.5575C16.7861 29.4175 16.7336 29.7535 16.6811 29.9495C16.674 30.0177 16.686 30.0865 16.7156 30.1482C16.7453 30.21 16.7915 30.2624 16.8491 30.2995C16.9227 30.3397 17.0016 30.3691 17.0836 30.387V30.3695ZM28.1261 29.9495C28.1261 29.6905 27.8181 29.5995 27.6116 29.5995C27.5509 29.606 27.4921 29.6245 27.4386 29.6541C27.3852 29.6836 27.3382 29.7235 27.3004 29.7714C27.2626 29.8193 27.2347 29.8743 27.2184 29.9331C27.2021 29.992 27.1978 30.0535 27.2056 30.114C27.2056 30.1722 27.2171 30.2299 27.2395 30.2836C27.2618 30.3373 27.2946 30.3861 27.336 30.4271C27.3773 30.4681 27.4263 30.5005 27.4802 30.5224C27.5341 30.5444 27.5919 30.5555 27.6501 30.555C27.9581 30.562 28.1471 30.401 28.1261 29.967V29.9495Z" fill="white"/>
<path d="M13.741 21.2905C14.3325 21.2905 14.609 21.5985 14.5915 21.9905C14.574 22.3825 14.462 22.6905 13.5415 22.6905C12.8415 22.6905 5.49154 22.6415 4.21404 22.6695C3.61554 22.6695 3.23054 22.491 3.21654 22.0955C3.19017 21.9148 3.23542 21.731 3.34265 21.5833C3.44988 21.4355 3.61061 21.3355 3.79054 21.3045C4.51154 21.2625 12.362 21.2835 13.741 21.2905ZM13.041 18.8405C13.6325 18.8405 13.909 19.1485 13.8915 19.5405C13.874 19.9325 13.762 20.2405 12.8415 20.2405C12.1415 20.2405 6.19154 20.1915 4.91404 20.2195C4.31554 20.2195 3.93054 20.041 3.91654 19.6455C3.89017 19.4648 3.93542 19.281 4.04265 19.1333C4.14988 18.9855 4.31061 18.8855 4.49054 18.8545C5.21154 18.8125 11.662 18.8335 13.041 18.8405Z" fill="white"/>
</svg>
