<svg xmlns="http://www.w3.org/2000/svg" width="300" height="300" viewBox="0 0 100 100">
  <defs/>
  <path d="M67.173 75.111H31.567V30.903h35.605v44.208zm-34.856-.75h34.105V31.653H32.317v42.708zM68.039 29.17H30.701c-.892 0-1.617-.725-1.617-1.617v-2.69c0-.892.726-1.617 1.617-1.617h11.422v-1.073c0-.892.725-1.617 1.616-1.617h11.133c.892 0 1.617.726 1.617 1.617v1.073h11.55c.892 0 1.617.726 1.617 1.617v2.69c0 .892-.725 1.617-1.617 1.617zm-37.338-5.174c-.479 0-.867.389-.867.867v2.69c0 .478.389.867.867.867h37.338c.479 0 .867-.389.867-.867v-2.69c0-.478-.389-.867-.867-.867h-12.3v-1.823c0-.478-.389-.867-.867-.867H43.739c-.478 0-.866.389-.866.867v1.823H30.701z"/>
  <path d="M41.397 41.315h.75v28.144h-.75zM48.848 41.315h.75v28.144h-.75zM56.297 41.315h.75v28.144h-.75z"/>
</svg>
