<svg width="29" height="29" viewBox="0 0 29 29" fill="none" xmlns="http://www.w3.org/2000/svg">
<g clip-path="url(#clip0)">
<path d="M8.40101 14.4501C8.46542 14.4835 8.53691 14.5009 8.60945 14.5009C8.68199 14.5009 8.75347 14.4835 8.81789 14.4501C9.06257 14.3187 14.9532 11.1922 14.9532 7.70311C14.9592 7.26976 14.8754 6.83986 14.7069 6.44055C14.5385 6.04124 14.2891 5.68118 13.9745 5.38311C13.3779 4.83127 12.594 4.52676 11.7813 4.53124C11.1265 4.54693 10.4877 4.73648 9.93031 5.08047C9.37293 5.42445 8.91706 5.91049 8.60945 6.48874C8.30184 5.91049 7.84597 5.42445 7.28859 5.08047C6.7312 4.73648 6.09237 4.54693 5.43757 4.53124C4.62651 4.52791 3.84437 4.83234 3.24898 5.38311C2.93354 5.68079 2.68329 6.04067 2.51405 6.44C2.3448 6.83933 2.26023 7.26943 2.2657 7.70311C2.2657 11.1922 8.15632 14.3187 8.40101 14.4501ZM3.86976 6.04921C4.29714 5.65588 4.85674 5.43754 5.43757 5.43749C6.09018 5.47481 6.71175 5.7285 7.20409 6.15848C7.69644 6.58846 8.03149 7.17022 8.15632 7.81186C8.18088 7.90984 8.23747 7.9968 8.3171 8.05894C8.39673 8.12108 8.49485 8.15483 8.59586 8.15483C8.69686 8.15483 8.79498 8.12108 8.87461 8.05894C8.95424 7.9968 9.01083 7.90984 9.03539 7.81186C9.1614 7.16591 9.50044 6.58089 9.99827 6.15042C10.4961 5.71995 11.1239 5.46892 11.7813 5.43749C12.3637 5.4364 12.9251 5.65482 13.3537 6.04921C13.5797 6.26012 13.7584 6.51661 13.8779 6.80172C13.9974 7.08683 14.055 7.39407 14.047 7.70311C14.047 10.3176 9.63351 12.9503 8.60945 13.5303C7.58539 12.9503 3.17195 10.3176 3.17195 7.70311C3.1633 7.39441 3.22021 7.08738 3.33893 6.80229C3.45766 6.51719 3.63549 6.26052 3.8607 6.04921H3.86976Z" fill="white"/>
<path d="M8.60944 17.2188C10.3122 17.2188 11.9767 16.7138 13.3925 15.7678C14.8084 14.8218 15.9118 13.4772 16.5635 11.904C17.2151 10.3309 17.3856 8.59983 17.0534 6.92977C16.7212 5.25972 15.9012 3.72567 14.6972 2.52163C13.4931 1.31759 11.9591 0.497625 10.289 0.165431C8.61899 -0.166764 6.88793 0.00373029 5.31477 0.655354C3.74161 1.30698 2.39701 2.41046 1.451 3.82627C0.504992 5.24207 6.10352e-05 6.90661 6.10352e-05 8.60938C6.10352e-05 10.8927 0.907117 13.0826 2.52169 14.6971C4.13626 16.3117 6.32609 17.2188 8.60944 17.2188ZM8.60944 0.906254C10.133 0.906254 11.6223 1.35803 12.8891 2.20446C14.1558 3.05089 15.1432 4.25396 15.7262 5.66152C16.3092 7.06908 16.4618 8.61792 16.1645 10.1122C15.8673 11.6064 15.1337 12.979 14.0564 14.0563C12.9791 15.1336 11.6065 15.8673 10.1122 16.1645C8.61798 16.4617 7.06914 16.3092 5.66158 15.7261C4.25402 15.1431 3.05095 14.1558 2.20452 12.889C1.35809 11.6222 0.906311 10.1329 0.906311 8.60938C0.906311 6.56638 1.71789 4.60706 3.1625 3.16245C4.60712 1.71783 6.56644 0.906254 8.60944 0.906254ZM8.60944 27.1875C8.60944 27.546 8.71574 27.8964 8.9149 28.1945C9.11406 28.4925 9.39713 28.7249 9.72832 28.862C10.0595 28.9992 10.4239 29.0351 10.7755 28.9652C11.1271 28.8952 11.4501 28.7226 11.7036 28.4691C11.957 28.2157 12.1297 27.8927 12.1996 27.5411C12.2695 27.1895 12.2337 26.8251 12.0965 26.4939C11.9593 26.1627 11.727 25.8796 11.4289 25.6805C11.1308 25.4813 10.7804 25.375 10.4219 25.375C9.94123 25.375 9.48022 25.566 9.14031 25.9059C8.8004 26.2458 8.60944 26.7068 8.60944 27.1875ZM10.4219 26.2813C10.6012 26.2813 10.7764 26.3344 10.9254 26.434C11.0745 26.5336 11.1906 26.6751 11.2592 26.8407C11.3278 27.0063 11.3457 27.1885 11.3108 27.3643C11.2758 27.5401 11.1895 27.7016 11.0628 27.8283C10.936 27.9551 10.7745 28.0414 10.5987 28.0763C10.4229 28.1113 10.2407 28.0934 10.0751 28.0248C9.90953 27.9562 9.768 27.84 9.66842 27.691C9.56884 27.542 9.51569 27.3667 9.51569 27.1875C9.51569 26.9472 9.61117 26.7166 9.78112 26.5467C9.95108 26.3767 10.1816 26.2813 10.4219 26.2813ZM15.8594 27.1875C15.8594 27.546 15.9657 27.8964 16.1649 28.1945C16.3641 28.4925 16.6471 28.7249 16.9783 28.862C17.3095 28.9992 17.6739 29.0351 18.0255 28.9652C18.3771 28.8952 18.7001 28.7226 18.9536 28.4691C19.2071 28.2157 19.3797 27.8927 19.4496 27.5411C19.5195 27.1895 19.4837 26.8251 19.3465 26.4939C19.2093 26.1627 18.977 25.8796 18.6789 25.6805C18.3808 25.4813 18.0304 25.375 17.6719 25.375C17.1912 25.375 16.7302 25.566 16.3903 25.9059C16.0504 26.2458 15.8594 26.7068 15.8594 27.1875ZM17.6719 26.2813C17.8512 26.2813 18.0264 26.3344 18.1754 26.434C18.3245 26.5336 18.4406 26.6751 18.5092 26.8407C18.5778 27.0063 18.5957 27.1885 18.5608 27.3643C18.5258 27.5401 18.4395 27.7016 18.3128 27.8283C18.186 27.9551 18.0245 28.0414 17.8487 28.0763C17.6729 28.1113 17.4907 28.0934 17.3251 28.0248C17.1595 27.9562 17.018 27.84 16.9184 27.691C16.8188 27.542 16.7657 27.3667 16.7657 27.1875C16.7657 26.9472 16.8612 26.7166 17.0311 26.5467C17.2011 26.3767 17.4316 26.2813 17.6719 26.2813Z" fill="white"/>
<path d="M28.0938 9.0625H25.3751C25.1347 9.0625 24.9042 9.15798 24.7342 9.32793C24.5643 9.49789 24.4688 9.7284 24.4688 9.96875H22.6563C22.5528 9.96573 22.4514 9.99826 22.3689 10.0609C22.2865 10.1236 22.228 10.2126 22.2032 10.3131L21.8497 11.7812H17.6719V12.6875H22.2032C22.3234 12.6875 22.4386 12.7352 22.5236 12.8202C22.6086 12.9052 22.6563 13.0204 22.6563 13.1406C22.6563 13.2608 22.6086 13.3761 22.5236 13.461C22.4386 13.546 22.3234 13.5937 22.2032 13.5937H16.3126V14.5H17.1463L16.6026 18.125H11.4097L11.3282 17.5994L10.4219 17.7444L10.4854 18.125H7.62162L7.51287 17.5812L6.60662 17.7625L7.69412 23.2C7.71531 23.3039 7.77225 23.3971 7.85505 23.4633C7.93784 23.5295 8.04124 23.5646 8.14725 23.5625H19.3576L19.131 24.4687H8.15631C8.03613 24.4687 7.92088 24.5165 7.8359 24.6015C7.75093 24.6864 7.70319 24.8017 7.70319 24.9219C7.70319 25.042 7.75093 25.1573 7.8359 25.2423C7.92088 25.3273 8.03613 25.375 8.15631 25.375H19.4844C19.5879 25.378 19.6894 25.3455 19.7718 25.2828C19.8543 25.2202 19.9128 25.1312 19.9376 25.0306L20.3907 23.2181L22.1216 14.5H22.2032C22.5145 14.4998 22.8163 14.3928 23.0582 14.1968C23.3001 14.0008 23.4674 13.7278 23.5321 13.4232C23.5968 13.1187 23.5551 12.8012 23.4138 12.5238C23.2725 12.2464 23.0403 12.0258 22.756 11.8991L23.0097 10.875H24.4688C24.4688 11.1154 24.5643 11.3459 24.7342 11.5158C24.9042 11.6858 25.1347 11.7812 25.3751 11.7812H28.0938C28.3342 11.7812 28.5647 11.6858 28.7346 11.5158C28.9046 11.3459 29.0001 11.1154 29.0001 10.875V9.96875C29.0001 9.7284 28.9046 9.49789 28.7346 9.32793C28.5647 9.15798 28.3342 9.0625 28.0938 9.0625ZM16.4666 19.0312L15.9229 22.6562H12.1665L11.5593 19.0312H16.4666ZM19.566 22.6562H16.8472L17.391 19.0312H20.3001L19.566 22.6562ZM7.78475 19.0312H10.6258L11.2285 22.6562H8.50975L7.78475 19.0312ZM20.4722 18.125H17.5179L18.0616 14.5H21.1972L20.4722 18.125ZM25.3751 10.875V9.96875H28.0938V10.875H25.3751ZM20.8438 6.79687H21.2969V7.25C21.2969 7.37018 21.3447 7.48543 21.4297 7.57041C21.5146 7.65539 21.6299 7.70312 21.7501 7.70312C21.8702 7.70312 21.9855 7.65539 22.0705 7.57041C22.1554 7.48543 22.2032 7.37018 22.2032 7.25V6.79687H22.6563C22.7765 6.79687 22.8917 6.74913 22.9767 6.66416C23.0617 6.57918 23.1094 6.46393 23.1094 6.34375C23.1094 6.22357 23.0617 6.10832 22.9767 6.02334C22.8917 5.93836 22.7765 5.89062 22.6563 5.89062H22.2032V5.4375C22.2032 5.31732 22.1554 5.20207 22.0705 5.11709C21.9855 5.03211 21.8702 4.98437 21.7501 4.98437C21.6299 4.98437 21.5146 5.03211 21.4297 5.11709C21.3447 5.20207 21.2969 5.31732 21.2969 5.4375V5.89062H20.8438C20.7236 5.89062 20.6084 5.93836 20.5234 6.02334C20.4384 6.10832 20.3907 6.22357 20.3907 6.34375C20.3907 6.46393 20.4384 6.57918 20.5234 6.66416C20.6084 6.74913 20.7236 6.79687 20.8438 6.79687ZM18.1251 1.8125H18.5782V2.26562C18.5782 2.3858 18.6259 2.50106 18.7109 2.58603C18.7959 2.67101 18.9111 2.71875 19.0313 2.71875C19.1515 2.71875 19.2667 2.67101 19.3517 2.58603C19.4367 2.50106 19.4844 2.3858 19.4844 2.26562V1.8125H19.9376C20.0577 1.8125 20.173 1.76476 20.258 1.67978C20.3429 1.59481 20.3907 1.47955 20.3907 1.35937C20.3907 1.2392 20.3429 1.12394 20.258 1.03897C20.173 0.95399 20.0577 0.90625 19.9376 0.90625H19.4844V0.453125C19.4844 0.332949 19.4367 0.217695 19.3517 0.132717C19.2667 0.0477398 19.1515 0 19.0313 0C18.9111 0 18.7959 0.0477398 18.7109 0.132717C18.6259 0.217695 18.5782 0.332949 18.5782 0.453125V0.90625H18.1251C18.0049 0.90625 17.8896 0.95399 17.8047 1.03897C17.7197 1.12394 17.6719 1.2392 17.6719 1.35937C17.6719 1.47955 17.7197 1.59481 17.8047 1.67978C17.8896 1.76476 18.0049 1.8125 18.1251 1.8125ZM4.07819 20.3906H3.62506V19.9375C3.62506 19.8173 3.57732 19.7021 3.49234 19.6171C3.40737 19.5321 3.29211 19.4844 3.17194 19.4844C3.05176 19.4844 2.93651 19.5321 2.85153 19.6171C2.76655 19.7021 2.71881 19.8173 2.71881 19.9375V20.3906H2.26569C2.14551 20.3906 2.03026 20.4384 1.94528 20.5233C1.8603 20.6083 1.81256 20.7236 1.81256 20.8437C1.81256 20.9639 1.8603 21.0792 1.94528 21.1642C2.03026 21.2491 2.14551 21.2969 2.26569 21.2969H2.71881V21.75C2.71881 21.8702 2.76655 21.9854 2.85153 22.0704C2.93651 22.1554 3.05176 22.2031 3.17194 22.2031C3.29211 22.2031 3.40737 22.1554 3.49234 22.0704C3.57732 21.9854 3.62506 21.8702 3.62506 21.75V21.2969H4.07819C4.19836 21.2969 4.31362 21.2491 4.39859 21.1642C4.48357 21.0792 4.53131 20.9639 4.53131 20.8437C4.53131 20.7236 4.48357 20.6083 4.39859 20.5233C4.31362 20.4384 4.19836 20.3906 4.07819 20.3906Z" fill="white"/>
</g>
<defs>
<clipPath id="clip0">
<rect width="29" height="29" fill="white"/>
</clipPath>
</defs>
</svg>
